<?xml version="1.0" standalone="no"?><!DOCTYPE svg PUBLIC "-//W3C//DTD SVG 1.1//EN" "http://www.w3.org/Graphics/SVG/1.1/DTD/svg11.dtd"><svg t="1758880647974" class="icon" viewBox="0 0 3559 1024" version="1.1" xmlns="http://www.w3.org/2000/svg" p-id="1577" xmlns:xlink="http://www.w3.org/1999/xlink" width="695.1171875" height="200"><path d="M416.914286 646.095238c-17.066667 9.752381-41.447619 2.438095-51.2-14.628571l-2.438096-4.876191-104.838095-231.619047c0-2.438095-2.438095-4.87619-2.438095-7.314286 0-4.87619 2.438095-9.752381 4.87619-14.628572 2.438095-2.438095 7.314286-4.87619 14.628572-4.87619 4.87619 0 7.314286 2.438095 12.190476 4.87619l121.904762 87.771429c14.628571 9.752381 34.133333 12.190476 51.2 4.87619L1041.066667 204.8C936.228571 80.457143 765.561905 0 572.952381 0 256 0 0 216.990476 0 482.742857c0 146.285714 78.019048 275.504762 197.485714 365.714286 9.752381 7.314286 17.066667 19.504762 17.066667 31.695238 0 4.87619 0 7.314286-2.438095 12.190476l-26.819048 97.52381c-2.438095 4.87619-2.438095 9.752381-2.438095 14.628571 0 9.752381 9.752381 19.504762 19.504762 19.504762 4.87619 0 7.314286-2.438095 12.190476-2.438095l124.342857-73.142857c9.752381-4.87619 19.504762-9.752381 29.257143-9.752381 4.87619 0 12.190476 0 17.066667 2.438095 60.952381 17.066667 124.342857 26.819048 187.733333 26.819048 316.952381 0 572.952381-216.990476 572.952381-482.742858 0-80.457143-21.942857-156.038095-65.828572-224.304762l-658.285714 385.219048h-4.87619z" fill="#00B700" p-id="1578"></path><path d="M1443.352381 424.228571c-24.380952 60.952381-58.514286 119.466667-99.961905 168.228572l14.628572 26.819047c17.066667-19.504762 34.133333-41.447619 48.761904-63.390476v243.809524h26.819048V514.438095c12.190476-24.380952 24.380952-48.761905 36.571429-75.580952l-26.819048-14.628572z m26.819048-129.219047l-24.380953-14.628572c-24.380952 51.2-56.07619 97.52381-97.523809 136.533334l14.628571 26.819047c46.32381-41.447619 80.457143-92.647619 107.276191-148.723809z m214.552381 365.714286l-43.885715 36.571428v-107.27619h-138.971428V633.904762c4.87619 58.514286-9.752381 99.961905-43.885715 124.342857l14.628572 26.819048c39.009524-34.133333 58.514286-80.457143 56.07619-138.971429v-26.819048h85.333334V682.666667c0 21.942857-2.438095 29.257143-9.752381 39.009523l17.066666 29.257143c14.628571-12.190476 39.009524-34.133333 75.580953-65.828571l-12.190476-24.380952zM1494.552381 536.380952h165.790476v-26.819047h-165.790476V536.380952z m177.980952-207.238095h-26.819047v97.52381h-53.638096v-138.971429h-26.819047v138.971429H1511.619048v-97.52381h-26.819048v124.342857h187.733333v-124.342857z m585.142857 21.942857l21.942858-12.190476c-4.87619-9.752381-21.942857-48.761905-29.257143-60.952381l-24.380953 14.628572c9.752381 17.066667 17.066667 34.133333 26.819048 51.2 0 2.438095 2.438095 4.87619 2.438095 7.314285H2072.380952v29.257143h368.152381v-29.257143h-182.857143zM1918.780952 536.380952l14.628572 26.819048c17.066667-26.819048 36.571429-56.07619 53.638095-90.209524v329.142857h26.819048V414.47619c17.066667-39.009524 31.695238-78.019048 46.323809-119.466666l-26.819047-14.628572c-21.942857 90.209524-60.952381 177.980952-114.590477 256z m219.428572 121.904762h234.057143v114.590476h-234.057143V658.285714z m-26.819048 141.409524h290.133334V633.904762H2111.390476v165.790476z m-9.752381-243.809524h304.761905v-29.257143H2101.638095v29.257143z m0-87.771428h304.761905v-26.819048H2101.638095v26.819048z" fill="#394144" p-id="1579"></path><path d="M3198.780952 273.066667c-34.133333 92.647619-87.771429 180.419048-146.285714 241.371428l12.190476 29.257143v2.438095c26.819048-26.819048 48.761905-56.07619 68.266667-85.333333v341.333333h26.819048V416.914286c24.380952-43.885714 46.32381-87.771429 63.390476-134.095238l-24.380953-9.752381z m-580.266666 251.123809h277.942857c-31.695238 65.828571-80.457143 114.590476-141.409524 153.6-58.514286-36.571429-104.838095-90.209524-136.533333-153.6z m319.390476-14.628571l-17.066667-12.190476h-151.161905v-102.4h224.304762V365.714286h-224.304762v-97.52381h-26.819047v97.52381h-224.304762v29.257143h224.304762v102.4h-151.161905v26.819047c31.695238 68.266667 80.457143 126.780952 141.409524 168.228572-68.266667 39.009524-146.285714 63.390476-226.742857 78.019047l7.314285 26.819048v2.438095c87.771429-17.066667 173.104762-46.32381 243.809524-87.771428 68.266667 43.885714 148.72381 70.704762 243.809524 85.333333v-2.438095l7.314286-24.380953c-87.771429-12.190476-163.352381-39.009524-226.742857-75.580952 65.828571-43.885714 121.904762-104.838095 156.038095-185.295238z m319.390476 4.87619c31.695238 48.761905 70.704762 112.152381 87.771429 151.161905l24.380952-17.066667c-19.504762-34.133333-58.514286-99.961905-90.209524-146.285714l-21.942857 12.190476z m-1438.47619-104.838095c-4.87619 92.647619-21.942857 165.790476-46.32381 219.428571-19.504762-48.761905-31.695238-112.152381-41.447619-195.047619 2.438095-9.752381 7.314286-17.066667 9.752381-26.819047l78.019048 2.438095zM1779.809524 280.380952h-26.819048c-19.504762 85.333333-46.32381 158.47619-80.457143 216.990477l17.066667 29.257142 12.190476-24.380952c4.87619-9.752381 9.752381-17.066667 12.190476-24.380952 7.314286 78.019048 24.380952 138.971429 46.32381 182.857143-19.504762 36.571429-51.2 73.142857-92.647619 109.714285l14.628571 26.819048c43.885714-41.447619 75.580952-78.019048 90.209524-109.714286 24.380952 41.447619 51.2 78.019048 85.333333 109.714286l14.628572-26.819048c-36.571429-36.571429-68.266667-75.580952-85.333333-109.714285 31.695238-58.514286 51.2-141.409524 58.514285-253.561905h29.257143v-26.819048h-121.904762c9.752381-29.257143 21.942857-68.266667 26.819048-99.961905z" fill="#394144" p-id="1580"></path><path d="M3481.6 402.285714v-126.780952h-26.819048v126.780952h-238.933333v29.257143h238.933333V755.809524c0 14.628571-4.87619 17.066667-17.066666 17.066666-9.752381 0-21.942857 2.438095-51.2 2.438096v24.380952c41.447619 0 53.638095 0 68.266666-4.87619 17.066667-4.87619 26.819048-14.628571 26.819048-41.447619V429.104762h78.019048v-26.819048h-78.019048z" fill="#394144" p-id="1581"></path></svg>